<svg width="50" height="50" viewBox="0 0 50 50" fill="none" xmlns="http://www.w3.org/2000/svg">
<path d="M9.375 17.1875H7.8125C7.6053 17.1875 7.40659 17.2698 7.26007 17.4163C7.11356 17.5628 7.03125 17.7615 7.03125 17.9688C7.03125 18.176 7.11356 18.3747 7.26007 18.5212C7.40659 18.6677 7.6053 18.75 7.8125 18.75H9.375C9.5822 18.75 9.78091 18.6677 9.92743 18.5212C10.0739 18.3747 10.1562 18.176 10.1562 17.9688C10.1562 17.7615 10.0739 17.5628 9.92743 17.4163C9.78091 17.2698 9.5822 17.1875 9.375 17.1875ZM9.375 37.1094H7.8125C7.6053 37.1094 7.40659 37.1917 7.26007 37.3382C7.11356 37.4847 7.03125 37.6834 7.03125 37.8906C7.03125 38.0978 7.11356 38.2965 7.26007 38.4431C7.40659 38.5896 7.6053 38.6719 7.8125 38.6719H9.375C9.5822 38.6719 9.78091 38.5896 9.92743 38.4431C10.0739 38.2965 10.1562 38.0978 10.1562 37.8906C10.1562 37.6834 10.0739 37.4847 9.92743 37.3382C9.78091 37.1917 9.5822 37.1094 9.375 37.1094ZM1.5625 8.59375C1.5625 8.38655 1.64481 8.18784 1.79132 8.04132C1.93784 7.89481 2.13655 7.8125 2.34375 7.8125H12.1094V6.64062C12.1094 6.51017 12.1159 6.3798 12.1289 6.25H2.34375C1.72215 6.25 1.12601 6.49693 0.686468 6.93647C0.24693 7.37601 0 7.97215 0 8.59375L0 13.2812C0.461977 12.9334 0.995807 12.6932 1.5625 12.5781V8.59375Z" fill="#5B265D"/>
<path d="M15.625 35.5273V39.0625C15.625 39.2697 15.5427 39.4684 15.3962 39.6149C15.2497 39.7614 15.051 39.8438 14.8438 39.8438H2.34375C2.13655 39.8438 1.93784 39.7614 1.79132 39.6149C1.64481 39.4684 1.5625 39.2697 1.5625 39.0625V16.4062C1.5625 16.199 1.64481 16.0003 1.79132 15.8538C1.93784 15.7073 2.13655 15.625 2.34375 15.625H12.1094V14.0625H2.34375C1.72215 14.0625 1.12601 14.3094 0.686468 14.749C0.24693 15.1885 0 15.7846 0 16.4062L0 39.0625C0 39.6841 0.24693 40.2802 0.686468 40.7198C1.12601 41.1593 1.72215 41.4062 2.34375 41.4062H14.8438C15.4654 41.4062 16.0615 41.1593 16.501 40.7198C16.9406 40.2802 17.1875 39.6841 17.1875 39.0625V35.5469H16.0156C15.8852 35.5469 15.7548 35.5404 15.625 35.5273ZM23.8281 29.6875C23.8281 29.8947 23.9104 30.0934 24.0569 30.2399C24.2035 30.3864 24.4022 30.4688 24.6094 30.4688H26.1719C26.3791 30.4688 26.5778 30.3864 26.7243 30.2399C26.8708 30.0934 26.9531 29.8947 26.9531 29.6875C26.9531 29.4803 26.8708 29.2816 26.7243 29.1351C26.5778 28.9886 26.3791 28.9062 26.1719 28.9062H24.6094C24.4022 28.9062 24.2035 28.9886 24.0569 29.1351C23.9104 29.2816 23.8281 29.4803 23.8281 29.6875Z" fill="#5B265D"/>
<path d="M25 8.78906C25.4315 8.78906 25.7812 8.43929 25.7812 8.00781C25.7812 7.57634 25.4315 7.22656 25 7.22656C24.5685 7.22656 24.2188 7.57634 24.2188 8.00781C24.2188 8.43929 24.5685 8.78906 25 8.78906Z" fill="#5B265D"/>
<path d="M47.6562 6.25H37.8711C37.8841 6.3798 37.8906 6.51017 37.8906 6.64062V7.8125H47.6562C47.8634 7.8125 48.0622 7.89481 48.2087 8.04132C48.3552 8.18784 48.4375 8.38655 48.4375 8.59375V27.3438C48.9865 27.3436 49.5257 27.4892 50 27.7656V8.59375C50 7.97215 49.7531 7.37601 49.3135 6.93647C48.874 6.49693 48.2779 6.25 47.6562 6.25ZM34.0156 41.4062C33.7392 40.9319 33.5936 40.3927 33.5938 39.8438H18.6719C18.5568 40.4104 18.3166 40.9443 17.9688 41.4062H21.875V44.5312H18.3594C18.1522 44.5312 17.9535 44.6136 17.8069 44.7601C17.6604 44.9066 17.5781 45.1053 17.5781 45.3125C17.5781 45.5197 17.6604 45.7184 17.8069 45.8649C17.9535 46.0114 18.1522 46.0938 18.3594 46.0938H31.6406C31.8478 46.0938 32.0465 46.0114 32.1931 45.8649C32.3396 45.7184 32.4219 45.5197 32.4219 45.3125C32.4219 45.1053 32.3396 44.9066 32.1931 44.7601C32.0465 44.6136 31.8478 44.5312 31.6406 44.5312H28.125V41.4062H34.0156ZM23.4375 44.5312V41.4062H26.5625V44.5312H23.4375ZM36.3281 27.3711V6.64062C36.3281 6.01902 36.0812 5.42288 35.6417 4.98334C35.2021 4.54381 34.606 4.29688 33.9844 4.29688H16.0156C15.394 4.29688 14.7979 4.54381 14.3583 4.98334C13.9188 5.42288 13.6719 6.01902 13.6719 6.64062V31.6406C13.6719 32.2622 13.9188 32.8584 14.3583 33.2979C14.7979 33.7374 15.394 33.9844 16.0156 33.9844H33.5938V32.4219H16.0156C15.8084 32.4219 15.6097 32.3396 15.4632 32.1931C15.3167 32.0465 15.2344 31.8478 15.2344 31.6406V6.64062C15.2344 6.43342 15.3167 6.23471 15.4632 6.0882C15.6097 5.94169 15.8084 5.85938 16.0156 5.85938H33.9844C34.1916 5.85938 34.3903 5.94169 34.5368 6.0882C34.6833 6.23471 34.7656 6.43342 34.7656 6.64062V28.0312C35.2156 27.6714 35.7564 27.4429 36.3281 27.3711Z" fill="#5B265D"/>
<path d="M48.4375 28.9062H46.875V25.8203C46.875 23.6406 45.0117 21.875 42.707 21.875H42.4453C40.1445 21.875 38.2812 23.6406 38.2812 25.8203V28.9062H36.7188C36.3043 28.9062 35.9069 29.0709 35.6139 29.3639C35.3209 29.6569 35.1562 30.0543 35.1562 30.4688V39.8438C35.1562 40.2582 35.3209 40.6556 35.6139 40.9486C35.9069 41.2416 36.3043 41.4062 36.7188 41.4062H48.4375C48.8519 41.4062 49.2493 41.2416 49.5424 40.9486C49.8354 40.6556 50 40.2582 50 39.8438V30.4688C50 30.0543 49.8354 29.6569 49.5424 29.3639C49.2493 29.0709 48.8519 28.9062 48.4375 28.9062ZM39.8438 25.8203C39.8752 25.1595 40.1668 24.538 40.655 24.0915C41.1432 23.645 41.7882 23.4099 42.4492 23.4375H42.7109C43.3713 23.411 44.0153 23.6466 44.5026 24.0929C44.99 24.5393 45.2811 25.1602 45.3125 25.8203V28.9062H39.8438V25.8203ZM42.5781 36.7188C42.4236 36.7188 42.2726 36.6729 42.1441 36.5871C42.0156 36.5012 41.9155 36.3792 41.8563 36.2365C41.7972 36.0937 41.7817 35.9366 41.8119 35.7851C41.842 35.6335 41.9164 35.4943 42.0257 35.3851C42.135 35.2758 42.2742 35.2014 42.4257 35.1713C42.5773 35.1411 42.7343 35.1566 42.8771 35.2157C43.0199 35.2749 43.1419 35.375 43.2277 35.5035C43.3136 35.6319 43.3594 35.783 43.3594 35.9375C43.3594 36.1447 43.2771 36.3434 43.1306 36.4899C42.984 36.6364 42.7853 36.7188 42.5781 36.7188ZM48.4375 39.8438H43.3594V38.1445C43.8806 37.9602 44.32 37.5976 44.5997 37.1207C44.8795 36.6438 44.9816 36.0834 44.8881 35.5385C44.7946 34.9936 44.5115 34.4992 44.0888 34.1429C43.6661 33.7865 43.131 33.5911 42.5781 33.5911C42.0252 33.5911 41.4902 33.7865 41.0675 34.1429C40.6447 34.4992 40.3616 34.9936 40.2681 35.5385C40.1746 36.0834 40.2768 36.6438 40.5565 37.1207C40.8363 37.5976 41.2756 37.9602 41.7969 38.1445V39.8438H36.7188V30.4688H48.4375V39.8438Z" fill="#5B265D"/>
</svg>
