<svg width="20" height="20" viewBox="0 0 20 20" fill="none" xmlns="http://www.w3.org/2000/svg">
<g clip-path="url(#clip0_8_9)">
<path d="M12.085 9.98833C12.085 11.1808 11.1183 12.1475 9.92583 12.1475C8.73334 12.1475 7.7675 11.1808 7.7675 9.98833C7.7675 8.79583 8.73417 7.82917 9.92583 7.82917C11.1175 7.82917 12.085 8.79583 12.085 9.98833Z" fill="#5B265D"/>
<path d="M10 0C4.4775 0 0 4.4775 0 10C0 15.5225 4.4775 20 10 20C15.5225 20 20 15.5225 20 10C20 4.4775 15.5225 0 10 0ZM16.3642 12.6583C16.3333 13.3475 16.2233 13.8183 16.0633 14.23C15.8975 14.6558 15.6758 15.0175 15.3158 15.3775C14.9558 15.7375 14.5942 15.9592 14.1692 16.1242C13.7575 16.2842 13.2858 16.3933 12.5967 16.425C11.9058 16.4567 11.685 16.4642 9.92583 16.4642C8.16667 16.4642 7.94667 16.4567 7.25583 16.425C6.56667 16.3933 6.09583 16.2842 5.68333 16.1242C5.2575 15.9592 4.89667 15.7367 4.53583 15.3775C4.17583 15.0175 3.95417 14.6558 3.78833 14.23C3.62833 13.8183 3.51917 13.3475 3.4875 12.6583C3.45583 11.9675 3.44833 11.7467 3.44833 9.9875C3.44833 8.22833 3.45583 8.00833 3.4875 7.3175C3.51917 6.62833 3.62833 6.1575 3.78833 5.745C3.95417 5.31917 4.17583 4.95833 4.53583 4.59833C4.89583 4.23833 5.2575 4.01667 5.68333 3.85083C6.095 3.69083 6.56667 3.58167 7.25583 3.55C7.94667 3.51833 8.1675 3.51083 9.92583 3.51083C11.6842 3.51083 11.9058 3.51833 12.5967 3.55C13.2858 3.58083 13.7567 3.69083 14.1692 3.85083C14.595 4.01583 14.9558 4.23833 15.3158 4.59833C15.6758 4.95833 15.8975 5.32 16.0633 5.745C16.2233 6.15667 16.3325 6.62833 16.3642 7.3175C16.3958 8.00833 16.4033 8.22833 16.4033 9.9875C16.4033 11.7467 16.3958 11.9667 16.3642 12.6583ZM14.9758 6.16833C14.8583 5.86583 14.7183 5.65 14.4908 5.42333C14.2642 5.19667 14.0483 5.05583 13.7458 4.93833C13.5175 4.85 13.175 4.74417 12.5433 4.71583C11.86 4.68417 11.655 4.67833 9.92583 4.67833C8.19667 4.67833 7.99167 4.685 7.30833 4.71583C6.6775 4.74417 6.33417 4.85 6.10583 4.93833C5.80333 5.05583 5.5875 5.19583 5.36083 5.42333C5.13417 5.65 4.99333 5.86583 4.87583 6.16833C4.7875 6.39667 4.68167 6.73917 4.65333 7.37083C4.62167 8.05333 4.61583 8.25833 4.61583 9.98833C4.61583 11.7183 4.6225 11.9225 4.65333 12.6058C4.6825 13.2367 4.7875 13.58 4.87583 13.8083C4.99333 14.1108 5.13333 14.3267 5.36083 14.5533C5.5875 14.78 5.80333 14.92 6.10583 15.0375C6.33417 15.1267 6.67667 15.2317 7.30833 15.2608C7.99083 15.2925 8.19583 15.2983 9.92583 15.2983C11.6558 15.2983 11.8608 15.2917 12.5433 15.2608C13.175 15.2317 13.5175 15.1267 13.7458 15.0375C14.0483 14.92 14.2642 14.78 14.4908 14.5533C14.7175 14.3267 14.8583 14.1108 14.9758 13.8083C15.0642 13.58 15.17 13.2375 15.1983 12.6058C15.23 11.9225 15.2367 11.7175 15.2367 9.98833C15.2367 8.25917 15.23 8.05417 15.1983 7.37083C15.1692 6.73917 15.0642 6.39667 14.9758 6.16833ZM9.92667 13.3133C8.09 13.3133 6.60083 11.8242 6.60083 9.9875C6.60083 8.15083 8.09 6.66167 9.92667 6.66167C11.7633 6.66167 13.2525 8.15083 13.2525 9.9875C13.2525 11.8242 11.7633 13.3133 9.92667 13.3133ZM13.3842 7.3075C12.955 7.3075 12.6067 6.96 12.6067 6.53083C12.6067 6.10167 12.9542 5.75333 13.3842 5.75333C13.8142 5.75333 14.1617 6.10167 14.1617 6.53083C14.1617 6.96 13.8133 7.3075 13.3842 7.3075Z" fill="#5B265D"/>
</g>
<defs>
<clipPath id="clip0_8_9">
<rect width="20" height="20" fill="white"/>
</clipPath>
</defs>
</svg>
