<svg width="20" height="20" viewBox="0 0 20 20" fill="none" xmlns="http://www.w3.org/2000/svg">
<g clip-path="url(#clip0_8_7)">
<path d="M10 0C4.4775 0 0 4.4775 0 10C0 15.5225 4.4775 20 10 20C15.5225 20 20 15.5225 20 10C20 4.4775 15.5225 0 10 0ZM16.1992 8.73583C14.9325 8.73583 13.7575 8.33083 12.7983 7.6425V12.61C12.7983 15.0908 10.78 17.1092 8.29917 17.1092C7.34 17.1092 6.45167 16.8067 5.72083 16.2942C4.56 15.4792 3.8 14.1325 3.8 12.61C3.8 10.1292 5.81833 8.11083 8.29917 8.11083C8.505 8.11083 8.70667 8.1275 8.905 8.155V10.65C8.71333 10.59 8.51 10.555 8.29917 10.555C7.16583 10.555 6.24417 11.4767 6.24417 12.61C6.24417 13.3992 6.69167 14.0842 7.34583 14.4292C7.63083 14.5792 7.955 14.665 8.29917 14.665C9.40667 14.665 10.3092 13.7842 10.35 12.6875L10.3542 2.89083H12.7983C12.7983 3.1025 12.8192 3.31 12.8558 3.51083C13.0283 4.44167 13.5808 5.24167 14.3467 5.74083C14.88 6.08917 15.5158 6.29167 16.1983 6.29167L16.1992 8.73583Z" fill="#5B265D"/>
</g>
<defs>
<clipPath id="clip0_8_7">
<rect width="20" height="20" fill="white"/>
</clipPath>
</defs>
</svg>
