<svg width="40" height="40" viewBox="0 0 40 40" fill="none" xmlns="http://www.w3.org/2000/svg">
<circle opacity="0.2" cx="20" cy="20" r="20" fill="#5B265D"/>
<g clip-path="url(#clip0_35_1064)">
<path d="M15 32C16.1046 32 17 31.1046 17 30C17 28.8954 16.1046 28 15 28C13.8954 28 13 28.8954 13 30C13 31.1046 13.8954 32 15 32Z" fill="#5B265D"/>
<path d="M25 32C26.1046 32 27 31.1046 27 30C27 28.8954 26.1046 28 25 28C23.8954 28 23 28.8954 23 30C23 31.1046 23.8954 32 25 32Z" fill="#5B265D"/>
<path d="M30.813 17.583C29.9022 18.8202 28.5516 19.6609 27.0394 19.9319C25.5272 20.2029 23.9686 19.8835 22.6849 19.0395C21.4012 18.1955 20.4902 16.8913 20.1395 15.3956C19.7888 13.8999 20.0252 12.3266 20.8 11H12.242L12.2 10.648C12.1138 9.9186 11.7631 9.24615 11.2142 8.7581C10.6653 8.27005 9.95647 8.00031 9.222 8H8V10H9.222C9.46693 10 9.70334 10.09 9.88637 10.2527C10.0694 10.4155 10.1863 10.6397 10.215 10.883L11.8 24.351C11.886 25.0806 12.2366 25.7533 12.7855 26.2415C13.3344 26.7298 14.0434 26.9997 14.778 27H28V25H14.778C14.5329 24.9999 14.2964 24.9099 14.1133 24.7469C13.9303 24.584 13.8134 24.3594 13.785 24.116L13.654 23H29.836L30.813 17.583Z" fill="#5B265D"/>
<path d="M29 13H27V11H25V13H23V15H25V17H27V15H29V13Z" fill="#5B265D"/>
</g>
<defs>
<clipPath id="clip0_35_1064">
<rect width="24" height="24" fill="white" transform="translate(8 8)"/>
</clipPath>
</defs>
</svg>
