<svg width="50" height="50" viewBox="0 0 50 50" fill="none" xmlns="http://www.w3.org/2000/svg">
<path d="M24.3477 48.3384C24.5589 48.4038 24.7788 48.4372 25 48.4376C25.2158 48.4371 25.4304 48.4047 25.6367 48.3415C28.7776 47.4414 31.7455 46.0215 34.4172 44.1407C34.5759 44.0173 34.681 43.8374 34.7105 43.6385C34.7399 43.4395 34.6916 43.2369 34.5754 43.0727C34.4593 42.9085 34.2843 42.7955 34.0869 42.7571C33.8895 42.7187 33.6849 42.7579 33.5156 42.8665C30.9826 44.648 28.1688 45.9924 25.1914 46.8438C25.0618 46.8852 24.9226 46.8852 24.793 46.8438C20.9041 45.7399 17.3077 43.7891 14.2617 41.1313C14.1859 41.0567 14.0958 40.9984 13.9967 40.9599C13.8975 40.9213 13.7916 40.9035 13.6854 40.9073C13.5791 40.9111 13.4748 40.9366 13.3787 40.9822C13.2826 41.0278 13.1969 41.0925 13.1267 41.1724C13.0565 41.2522 13.0034 41.3456 12.9705 41.4467C12.9377 41.5478 12.9258 41.6546 12.9357 41.7605C12.9456 41.8664 12.9769 41.9691 13.0279 42.0624C13.0788 42.1557 13.1483 42.2377 13.232 42.3032C16.447 45.1098 20.2428 47.1707 24.3477 48.3384ZM4.35078 11.7603C4.24905 11.7466 4.14563 11.7532 4.04644 11.7795C3.94724 11.8059 3.85421 11.8515 3.77266 11.9139C3.69112 11.9762 3.62265 12.054 3.57117 12.1428C3.51969 12.2315 3.48621 12.3296 3.47265 12.4313C2.92187 16.5493 2.26562 27.1095 8.04687 36.2353C8.10176 36.3219 8.17318 36.397 8.25707 36.4561C8.34096 36.5152 8.43566 36.5571 8.53577 36.5796C8.63589 36.6021 8.73945 36.6047 8.84055 36.5871C8.94165 36.5696 9.0383 36.5323 9.125 36.4774C9.21169 36.4226 9.28672 36.3511 9.34581 36.2672C9.4049 36.1834 9.44689 36.0887 9.46938 35.9885C9.49187 35.8884 9.49442 35.7849 9.47688 35.6838C9.45935 35.5827 9.42207 35.486 9.36718 35.3993C3.85937 26.7087 4.49296 16.5868 5.02031 12.6384C5.04785 12.4332 4.99281 12.2254 4.86727 12.0608C4.74173 11.8961 4.55596 11.788 4.35078 11.7603ZM10.1867 37.9274C10.1067 37.9918 10.0401 38.0713 9.99083 38.1613C9.94154 38.2514 9.91049 38.3503 9.89946 38.4524C9.88843 38.5545 9.89764 38.6578 9.92655 38.7563C9.95546 38.8549 10.0035 38.9467 10.068 39.0267C10.3023 39.3173 10.5531 39.6079 10.8109 39.8985C10.879 39.9755 10.9616 40.0383 11.0539 40.0833C11.1462 40.1283 11.2465 40.1548 11.3491 40.161C11.4516 40.1673 11.5544 40.1533 11.6515 40.1199C11.7487 40.0864 11.8383 40.0342 11.9152 39.9661C11.9922 39.898 12.055 39.8155 12.1 39.7231C12.145 39.6308 12.1715 39.5305 12.1777 39.428C12.184 39.3254 12.17 39.2226 12.1366 39.1255C12.1031 39.0284 12.0509 38.9388 11.9828 38.8618C11.7457 38.5947 11.5142 38.3228 11.2883 38.0462C11.2239 37.9658 11.1443 37.899 11.054 37.8495C10.9637 37.8 10.8646 37.7688 10.7622 37.7578C10.6598 37.7467 10.5563 37.756 10.4575 37.7852C10.3588 37.8143 10.2667 37.8626 10.1867 37.9274ZM44.5219 9.85869C41.6833 9.36466 38.9023 8.5833 36.2219 7.52666C32.7156 6.13892 29.4095 4.29094 26.3906 2.03135C25.9894 1.72958 25.5009 1.56641 24.9988 1.56641C24.4968 1.56641 24.0083 1.72958 23.607 2.03135C22.103 3.15649 20.5267 4.18161 18.8883 5.1001C18.7986 5.15018 18.7196 5.21747 18.6559 5.29812C18.5922 5.37876 18.5451 5.47117 18.5172 5.57006C18.4893 5.66895 18.4811 5.77238 18.4933 5.87441C18.5054 5.97645 18.5375 6.07509 18.5878 6.16469C18.6381 6.25429 18.7056 6.33309 18.7864 6.39657C18.8672 6.46006 18.9597 6.50698 19.0587 6.53465C19.1576 6.56233 19.2611 6.5702 19.3631 6.55784C19.4651 6.54548 19.5636 6.51311 19.6531 6.4626C21.3524 5.50819 22.9872 4.44313 24.5469 3.27432C24.6766 3.1746 24.8356 3.12054 24.9992 3.12054C25.1628 3.12054 25.3218 3.1746 25.4516 3.27432C28.5825 5.61931 32.0115 7.53718 35.6484 8.97744C38.43 10.0746 41.316 10.886 44.2617 11.3993C44.422 11.4265 44.5693 11.5045 44.6818 11.6219C44.7944 11.7392 44.8662 11.8896 44.8867 12.0509C45.3891 15.3524 46.1539 23.9165 42.4101 32.1009C42.3655 32.1944 42.3399 32.2959 42.3349 32.3994C42.3298 32.5029 42.3454 32.6064 42.3807 32.7038C42.4161 32.8012 42.4704 32.8906 42.5407 32.9668C42.6109 33.043 42.6955 33.1045 42.7898 33.1477C42.884 33.1908 42.9858 33.2148 43.0894 33.2183C43.193 33.2217 43.2962 33.2045 43.393 33.1676C43.4899 33.1307 43.5784 33.075 43.6535 33.0036C43.7286 32.9322 43.7888 32.8465 43.8305 32.7517C47.75 24.1837 46.9555 15.2564 46.432 11.8142C46.3612 11.3282 46.1381 10.8771 45.795 10.5258C45.4518 10.1745 45.0061 9.94092 44.5219 9.85869Z" fill="#5B265D"/>
<path d="M24.2461 42.8337C24.4876 42.9223 24.7428 42.968 25 42.9688C25.2532 42.9685 25.5044 42.9238 25.7422 42.8368C26.82 42.4576 27.8708 42.0058 28.8875 41.4844C28.9788 41.4374 29.0599 41.3729 29.1262 41.2946C29.1925 41.2163 29.2428 41.1256 29.2741 41.0279C29.3054 40.9301 29.3171 40.8272 29.3086 40.7249C29.3002 40.6226 29.2716 40.523 29.2246 40.4317C29.1776 40.3404 29.1131 40.2593 29.0348 40.193C28.9565 40.1267 28.8658 40.0764 28.7681 40.0451C28.6703 40.0138 28.5673 40.0021 28.4651 40.0106C28.3628 40.0191 28.2631 40.0476 28.1719 40.0946C27.2164 40.5859 26.2284 41.0114 25.2149 41.368C25.0729 41.4235 24.9153 41.4235 24.7734 41.368C21.2708 40.1681 18.1227 38.1137 15.6141 35.3907C9.71719 28.9602 9.19766 20.3508 9.41173 15.8079C9.41907 15.6868 9.44956 15.5682 9.50157 15.4587C9.57724 15.2742 9.57956 15.0679 9.50804 14.8818C9.43652 14.6957 9.29658 14.544 9.11687 14.4578C8.93716 14.3715 8.73127 14.3572 8.54136 14.4178C8.35145 14.4784 8.19188 14.6093 8.09532 14.7837C7.95605 15.0779 7.87462 15.3962 7.85548 15.7212C7.62891 20.5235 8.18673 29.6032 14.4656 36.4501C17.1447 39.3576 20.5061 41.5516 24.2461 42.8337ZM39.3547 28.9063C39.4404 28.9383 39.5312 28.9547 39.6227 28.9547C39.7828 28.9547 39.9391 28.9054 40.0703 28.8136C40.2015 28.7218 40.3013 28.5919 40.3563 28.4415C41.7796 24.358 42.3874 20.0349 42.1453 15.7172C42.1303 15.4015 42.0528 15.0919 41.9173 14.8062C41.7819 14.5206 41.5912 14.2647 41.3563 14.0532C41.2818 13.9762 41.1923 13.9153 41.0934 13.8744C40.9944 13.8334 40.8881 13.8132 40.781 13.8151C40.6739 13.817 40.5683 13.8409 40.4708 13.8852C40.3734 13.9296 40.2861 13.9936 40.2144 14.0731C40.1426 14.1527 40.088 14.2461 40.054 14.3477C40.0199 14.4492 40.0071 14.5567 40.0163 14.6634C40.0255 14.7701 40.0565 14.8738 40.1075 14.968C40.1584 15.0622 40.2282 15.1449 40.3125 15.211C40.3942 15.2852 40.4605 15.3748 40.5074 15.4747C40.5544 15.5746 40.581 15.6828 40.5859 15.793C40.8185 19.9015 40.2427 24.0156 38.8914 27.9024C38.8558 27.9987 38.8396 28.1011 38.8436 28.2037C38.8477 28.3064 38.8719 28.4072 38.9149 28.5004C38.958 28.5936 39.0189 28.6775 39.0944 28.7471C39.1699 28.8168 39.2583 28.8709 39.3547 28.9063ZM24.6961 8.65787C24.8065 8.60768 24.9278 8.5861 25.0488 8.59511C25.1698 8.60412 25.2865 8.64344 25.3883 8.70943C27.6371 10.1609 30.0043 11.4201 32.4648 12.4735C32.6539 12.5474 32.8642 12.5448 33.0514 12.4663C33.2385 12.3879 33.3878 12.2396 33.4676 12.053C33.5474 11.8664 33.5515 11.6561 33.4789 11.4666C33.4064 11.2771 33.2629 11.1232 33.0789 11.0376C30.6992 10.0178 28.4096 8.79938 26.2344 7.39537C25.9153 7.19001 25.5502 7.06721 25.1719 7.03803C24.7936 7.00884 24.414 7.07419 24.0672 7.22818C23.8883 7.31787 23.7507 7.47276 23.6827 7.66091C23.6147 7.84907 23.6214 8.05615 23.7016 8.23948C23.7817 8.4228 23.9291 8.56839 24.1134 8.64624C24.2978 8.72408 24.5049 8.72824 24.6922 8.65787H24.6961ZM37.1016 14.1993C37.1745 14.2213 37.2504 14.2323 37.3266 14.2321C37.5141 14.2319 37.6953 14.1644 37.8371 14.0416C37.979 13.9189 38.0719 13.7493 38.099 13.5638C38.1261 13.3782 38.0856 13.1891 37.9848 13.0309C37.884 12.8728 37.7297 12.7562 37.55 12.7024C37.1696 12.5868 36.7924 12.461 36.4188 12.3251C36.2238 12.2548 36.0089 12.2649 35.8214 12.3531C35.6338 12.4413 35.489 12.6004 35.4188 12.7954C35.3485 12.9903 35.3586 13.2052 35.4468 13.3928C35.535 13.5803 35.6941 13.7251 35.8891 13.7954C36.2938 13.9407 36.6977 14.0782 37.1016 14.1993Z" fill="#5B265D"/>
<path d="M20.7898 23.032C20.3255 22.5771 19.7013 22.3223 19.0512 22.3223C18.4011 22.3223 17.7769 22.5771 17.3125 23.032L16.3344 24.0297C15.8792 24.4992 15.6247 25.1274 15.6247 25.7813C15.6247 26.4351 15.8792 27.0634 16.3344 27.5328L22.3203 33.6414C22.5464 33.8736 22.8167 34.058 23.1152 34.184C23.4138 34.31 23.7346 34.3749 24.0586 34.3749C24.3826 34.3749 24.7034 34.31 25.0019 34.184C25.3005 34.058 25.5708 33.8736 25.7969 33.6414L36.7906 22.4219C37.2458 21.9524 37.5003 21.3242 37.5003 20.6703C37.5003 20.0164 37.2458 19.3882 36.7906 18.9188L35.8125 17.9211C35.5869 17.6885 35.3169 17.5036 35.0184 17.3776C34.7198 17.2516 34.399 17.1869 34.075 17.1875C33.7507 17.1869 33.4297 17.2515 33.1309 17.3776C32.8321 17.5036 32.5618 17.6884 32.3359 17.9211L24.6797 25.7336C24.5141 25.8973 24.2907 25.9892 24.0578 25.9892C23.825 25.9892 23.6015 25.8973 23.4359 25.7336L20.7898 23.032ZM25.7969 26.8266L33.4531 19.0141C33.5338 18.9305 33.6305 18.864 33.7374 18.8186C33.8443 18.7732 33.9592 18.7499 34.0754 18.7499C34.1915 18.7499 34.3065 18.7732 34.4134 18.8186C34.5203 18.864 34.617 18.9305 34.6977 19.0141L35.6758 20.0125C35.8468 20.1888 35.9425 20.4247 35.9425 20.6703C35.9425 20.9159 35.8468 21.1519 35.6758 21.3281L24.6805 32.5485C24.5149 32.7122 24.2914 32.804 24.0586 32.804C23.8257 32.804 23.6023 32.7122 23.4367 32.5485L17.4508 26.4391C17.2797 26.2628 17.1841 26.0269 17.1841 25.7813C17.1841 25.5357 17.2797 25.2997 17.4508 25.1235L18.4289 24.125C18.5947 23.9614 18.8182 23.8697 19.0512 23.8697C19.2841 23.8697 19.5076 23.9614 19.6734 24.125L22.3203 26.8266C22.7846 27.2813 23.4087 27.536 24.0586 27.536C24.7085 27.536 25.3325 27.2813 25.7969 26.8266ZM7.03125 10.9375C7.03134 11.1201 7.09539 11.2969 7.21228 11.4372C7.32916 11.5775 7.4915 11.6724 7.67109 11.7055C12.625 12.618 13.1633 13.1563 14.0773 18.1117C14.1108 18.291 14.2059 18.4528 14.3462 18.5693C14.4864 18.6858 14.663 18.7495 14.8453 18.7495C15.0276 18.7495 15.2042 18.6858 15.3445 18.5693C15.4847 18.4528 15.5798 18.291 15.6133 18.1117C16.5258 13.1578 17.0641 12.6195 22.0195 11.7055C22.1987 11.672 22.3606 11.5769 22.4771 11.4367C22.5936 11.2964 22.6573 11.1198 22.6573 10.9375C22.6573 10.7552 22.5936 10.5786 22.4771 10.4384C22.3606 10.2981 22.1987 10.203 22.0195 10.1695C17.0656 9.25705 16.5273 8.71877 15.6133 3.7633C15.5798 3.58408 15.4847 3.42221 15.3445 3.30573C15.2042 3.18925 15.0276 3.12549 14.8453 3.12549C14.663 3.12549 14.4864 3.18925 14.3462 3.30573C14.2059 3.42221 14.1108 3.58408 14.0773 3.7633C13.1648 8.7172 12.6266 9.25548 7.67109 10.1695C7.4915 10.2026 7.32916 10.2975 7.21228 10.4378C7.09539 10.5781 7.03134 10.7549 7.03125 10.9375ZM14.8437 7.25861C15.0758 8.14291 15.5387 8.94963 16.1852 9.59609C16.8316 10.2425 17.6384 10.7055 18.5227 10.9375C17.6384 11.1695 16.8316 11.6325 16.1852 12.2789C15.5387 12.9254 15.0758 13.7321 14.8437 14.6164C14.6117 13.7321 14.1488 12.9254 13.5023 12.2789C12.8559 11.6325 12.0491 11.1695 11.1648 10.9375C12.0491 10.7055 12.8559 10.2425 13.5023 9.59609C14.1488 8.94963 14.6117 8.14291 14.8437 7.25861ZM46.2352 38.2945C41.2812 37.382 40.743 36.8438 39.8289 31.8883C39.7954 31.7091 39.7003 31.5472 39.5601 31.4307C39.4198 31.3143 39.2433 31.2505 39.0609 31.2505C38.8786 31.2505 38.702 31.3143 38.5618 31.4307C38.4215 31.5472 38.3264 31.7091 38.293 31.8883C37.3805 36.8422 36.8422 37.3805 31.8867 38.2945C31.7075 38.328 31.5456 38.4231 31.4292 38.5634C31.3127 38.7036 31.2489 38.8802 31.2489 39.0625C31.2489 39.2448 31.3127 39.4214 31.4292 39.5617C31.5456 39.7019 31.7075 39.797 31.8867 39.8305C36.8406 40.743 37.3789 41.2813 38.293 46.2367C38.3264 46.416 38.4215 46.5778 38.5618 46.6943C38.702 46.8108 38.8786 46.8745 39.0609 46.8745C39.2433 46.8745 39.4198 46.8108 39.5601 46.6943C39.7003 46.5778 39.7954 46.416 39.8289 46.2367C40.7414 41.2828 41.2797 40.7445 46.2352 39.8305C46.4144 39.797 46.5762 39.7019 46.6927 39.5617C46.8092 39.4214 46.873 39.2448 46.873 39.0625C46.873 38.8802 46.8092 38.7036 46.6927 38.5634C46.5762 38.4231 46.4144 38.328 46.2352 38.2945ZM39.0625 42.7414C38.8305 41.8571 38.3675 41.0504 37.7211 40.4039C37.0746 39.7575 36.2679 39.2945 35.3836 39.0625C36.2679 38.8305 37.0746 38.3675 37.7211 37.7211C38.3675 37.0746 38.8305 36.2679 39.0625 35.3836C39.2945 36.2679 39.7575 37.0746 40.4039 37.7211C41.0504 38.3675 41.8571 38.8305 42.7414 39.0625C41.8571 39.2945 41.0504 39.7575 40.4039 40.4039C39.7575 41.0504 39.2945 41.8571 39.0625 42.7414Z" fill="#5B265D"/>
</svg>
