<svg width="50" height="50" viewBox="0 0 50 50" fill="none" xmlns="http://www.w3.org/2000/svg">
<g clip-path="url(#clip0_15_447)">
<path d="M16.51 3.99678C14.6333 5.72168 13.335 8.01309 12.9189 10.5816M37.1193 10.8362C36.3311 5.13389 31.2055 0.732422 25 0.732422C22.8654 0.732422 20.8587 1.25322 19.1122 2.16865" stroke="#5B265D" stroke-width="1.5" stroke-miterlimit="10" stroke-linecap="round" stroke-linejoin="round"/>
<path d="M18.6888 24.663C16.9498 22.6906 15.8667 20.0289 15.8667 17.4339V13.1264C15.8667 8.08438 19.9558 3.99707 25 3.99707C30.0441 3.99707 34.1332 8.08438 34.1332 13.1264V17.4339C34.1332 20.2198 32.8848 23.0826 30.9166 25.0869M15.8234 18.7807H12.9147C11.9911 18.7807 11.2424 18.0319 11.2424 17.1084V12.5131C11.2424 11.5895 11.9912 10.8408 12.9147 10.8408H15.8234V18.7807ZM34.1765 18.7807H37.0852C38.0088 18.7807 38.7575 18.0319 38.7575 17.1084V12.5131C38.7575 11.5895 38.0087 10.8408 37.0852 10.8408H34.1765V18.7807Z" stroke="#5B265D" stroke-width="1.5" stroke-miterlimit="10" stroke-linecap="round" stroke-linejoin="round"/>
<path d="M26.7974 21.9792H35.0388C36.2459 21.9792 37.2244 21.0007 37.2244 19.7937V18.7808M8.14636 44.0161V27.3702C8.14636 26.109 9.16882 25.0864 10.4302 25.0864H39.5698C40.8311 25.0864 41.8536 26.1089 41.8536 27.3702V44.0161" stroke="#5B265D" stroke-width="1.5" stroke-miterlimit="10" stroke-linecap="round" stroke-linejoin="round"/>
<path d="M32.9893 49.2674H8.53623C6.85449 49.2674 5.49121 47.9041 5.49121 46.2224V45.1561C5.49121 44.5254 6.00244 44.0142 6.63311 44.0142H43.3668C43.9975 44.0142 44.5087 44.5254 44.5087 45.1561V46.2224C44.5087 47.9041 43.1454 49.2674 41.4637 49.2674H36.4518" stroke="#5B265D" stroke-width="1.5" stroke-miterlimit="10" stroke-linecap="round" stroke-linejoin="round"/>
<path d="M25 37.0934C26.4038 37.0934 27.5418 35.9554 27.5418 34.5516C27.5418 33.1478 26.4038 32.0098 25 32.0098C23.5963 32.0098 22.4583 33.1478 22.4583 34.5516C22.4583 35.9554 23.5963 37.0934 25 37.0934Z" stroke="#5B265D" stroke-width="1.5" stroke-miterlimit="10" stroke-linecap="round" stroke-linejoin="round"/>
<path d="M15.8734 12.792H34.1265" stroke="#5B265D" stroke-width="1.5" stroke-miterlimit="10" stroke-linecap="round" stroke-linejoin="round"/>
</g>
<defs>
<clipPath id="clip0_15_447">
<rect width="50" height="50" fill="white"/>
</clipPath>
</defs>
</svg>
