<svg width="27" height="27" viewBox="0 0 27 27" fill="none" xmlns="http://www.w3.org/2000/svg">
<path d="M25.0235 5.931L21.0691 1.97662C19.7934 0.702 18.098 0 16.2958 0H10.7034C8.90115 0 7.20577 0.702 5.93002 1.97662L1.97565 5.931C0.701024 7.20675 -0.000976562 8.90213 -0.000976562 10.7044V16.2967C-0.000976562 18.099 0.701024 19.7944 1.97565 21.0701L5.93002 25.0245C7.20577 26.2991 8.90115 27.0011 10.7034 27.0011H16.2958C18.098 27.0011 19.7934 26.2991 21.0691 25.0245L25.0235 21.0701C26.2981 19.7944 27.0001 18.099 27.0001 16.2967V10.7044C27.0001 8.90213 26.2981 7.20675 25.0235 5.931ZM20.6248 11.0621L14.7388 16.9481C14.0491 17.6377 13.1323 18.018 12.1569 18.018C11.1815 18.018 10.2646 17.6377 9.57502 16.9481L6.43965 13.8127C5.99977 13.3729 5.99977 12.6619 6.43965 12.222C6.87952 11.7821 7.59052 11.7821 8.0304 12.222L11.1658 15.3574C11.6956 15.8872 12.6193 15.8861 13.148 15.3574L19.034 9.47137C19.4739 9.0315 20.1849 9.0315 20.6248 9.47137C21.0646 9.91125 21.0646 10.6223 20.6248 11.0621Z" fill="#5B265D"/>
</svg>
