<svg width="100" height="100" viewBox="0 0 100 100" fill="none" xmlns="http://www.w3.org/2000/svg">
<g clip-path="url(#clip0_147_325)">
<mask id="path-1-inside-1_147_325" fill="white">
<path d="M6.6666 68.3334H30V74.1316L17.6666 82.7732C16.0271 83.9205 15.5271 86.1256 16.5117 87.8676C17.4963 89.6098 19.643 90.3191 21.4717 89.5064L35 83.4898L48.535 89.5064C50.3641 90.3221 52.5135 89.6137 53.499 87.8701C54.4846 86.1266 53.9834 83.9197 52.3416 82.773L40 74.1316V68.3334H58.3334V86.6668C58.3334 88.5078 59.8258 90.0002 61.6668 90.0002H67.6436C68.5272 89.9981 69.3742 89.647 70.0002 89.0234L75.6902 83.3334H82.6436L88.3336 89.0234C88.9597 89.6469 89.8067 89.9979 90.6902 90.0002H96.667C98.508 90.0002 100 88.5078 100 86.6668V15C100 12.2387 97.7619 10 95.0004 10H63.3334C60.5721 10 58.3334 12.2387 58.3334 15V25H6.6666C2.98477 25 0 27.9848 0 31.6666V61.6666C0 65.3486 2.98477 68.3334 6.6666 68.3334ZM50.6666 86.035C50.6552 86.1369 50.6143 86.2334 50.5488 86.3124C50.4834 86.3914 50.3963 86.4497 50.2982 86.4799C50.1673 86.5251 50.024 86.5179 49.8982 86.46L35.6832 80.1434C35.47 80.0495 35.2395 80.001 35.0065 80.001C34.7736 80.001 34.5431 80.0495 34.3299 80.1434L20.1133 86.46C19.9885 86.5172 19.8465 86.5244 19.7166 86.4799C19.6197 86.4472 19.5338 86.3884 19.4683 86.3099C19.4029 86.2313 19.3605 86.1362 19.3458 86.035C19.3311 85.9339 19.3447 85.8306 19.3851 85.7367C19.4256 85.6428 19.4912 85.562 19.5748 85.5031L32.1914 76.6664H37.808L50.4313 85.4998C50.5185 85.5562 50.5873 85.637 50.6291 85.7321C50.671 85.8272 50.684 85.9325 50.6666 86.035ZM36.6666 73.3334H33.3332V68.3334H36.6666V73.3334ZM64.0232 80L70.1898 73.8334C70.3448 73.6753 70.5297 73.5497 70.7337 73.4639C70.9377 73.378 71.1568 73.3337 71.3781 73.3334H86.9447C87.1661 73.3337 87.3851 73.378 87.5892 73.4639C87.7932 73.5497 87.9781 73.6753 88.133 73.8334L94.2996 80H64.0232ZM67.6434 86.6666H61.6666V83.3332H70.9766L67.6434 86.6666ZM90.69 86.6666L87.3566 83.3332H96.6666V86.6666H90.69ZM94.31 13.3334L88.1434 19.5C87.9884 19.6581 87.8035 19.7837 87.5995 19.8695C87.3955 19.9554 87.1764 19.9997 86.9551 20H71.3834C71.1621 19.9997 70.943 19.9554 70.739 19.8695C70.5349 19.7837 70.3501 19.6581 70.1951 19.5L64.0234 13.3334H94.31ZM61.6666 15.69L67.8332 21.8566C68.2974 22.326 68.8503 22.6982 69.4598 22.9518C70.0693 23.2053 70.7231 23.335 71.3832 23.3334H86.9498C87.6087 23.335 88.2614 23.2058 88.8699 22.9532C89.4784 22.7005 90.0307 22.3295 90.4947 21.8617L96.6613 15.6951V28.3334H95C94.0795 28.3334 93.3334 29.0795 93.3334 30C93.3334 30.9205 94.0795 31.6666 95 31.6666H96.6666V35H95C94.558 35 94.1341 35.1756 93.8215 35.4881C93.509 35.8007 93.3334 36.2246 93.3334 36.6666C93.3334 37.1086 93.509 37.5325 93.8215 37.8451C94.1341 38.1576 94.558 38.3332 95 38.3332H96.6666V41.6666H95C94.558 41.6666 94.1341 41.8422 93.8215 42.1547C93.509 42.4673 93.3334 42.8912 93.3334 43.3332C93.3334 43.7752 93.509 44.1991 93.8215 44.5117C94.1341 44.8242 94.558 44.9998 95 44.9998H96.6666V48.3332H95C94.558 48.3332 94.1341 48.5088 93.8215 48.8213C93.509 49.1339 93.3334 49.5578 93.3334 49.9998C93.3334 50.4418 93.509 50.8657 93.8215 51.1783C94.1341 51.4908 94.558 51.6664 95 51.6664H96.6666V55H95C94.558 55 94.1341 55.1756 93.8215 55.4881C93.509 55.8007 93.3334 56.2246 93.3334 56.6666C93.3334 57.1086 93.509 57.5325 93.8215 57.8451C94.1341 58.1576 94.558 58.3332 95 58.3332H96.6666V61.6666H95C94.558 61.6666 94.1341 61.8422 93.8215 62.1547C93.509 62.4673 93.3334 62.8912 93.3334 63.3332C93.3334 63.7752 93.509 64.1991 93.8215 64.5117C94.1341 64.8242 94.558 64.9998 95 64.9998H96.6666V77.6432L90.5 71.4766C90.0358 71.0072 89.4829 70.635 88.8734 70.3814C88.2639 70.1279 87.6101 69.9982 86.95 69.9998H71.3834C70.7245 69.9982 70.0718 70.1274 69.4633 70.38C68.8548 70.6327 68.3025 71.0037 67.8385 71.4715L61.6719 77.6381V68.333H63.3385C67.0203 68.333 70.0051 65.3482 70.0051 61.6664V31.6664C70.0051 27.9846 67.0203 24.9998 63.3385 24.9998H61.6668V15.69H61.6666ZM3.3334 31.6666C3.3334 29.8256 4.82578 28.3332 6.6668 28.3332H63.3334C65.1744 28.3332 66.6668 29.8256 66.6668 31.6666V61.6666C66.6668 63.5076 65.1744 65 63.3334 65H6.6666C4.82559 65 3.3332 63.5076 3.3332 61.6666L3.3334 31.6666Z"/>
</mask>
<path d="M6.6666 68.3334H30V74.1316L17.6666 82.7732C16.0271 83.9205 15.5271 86.1256 16.5117 87.8676C17.4963 89.6098 19.643 90.3191 21.4717 89.5064L35 83.4898L48.535 89.5064C50.3641 90.3221 52.5135 89.6137 53.499 87.8701C54.4846 86.1266 53.9834 83.9197 52.3416 82.773L40 74.1316V68.3334H58.3334V86.6668C58.3334 88.5078 59.8258 90.0002 61.6668 90.0002H67.6436C68.5272 89.9981 69.3742 89.647 70.0002 89.0234L75.6902 83.3334H82.6436L88.3336 89.0234C88.9597 89.6469 89.8067 89.9979 90.6902 90.0002H96.667C98.508 90.0002 100 88.5078 100 86.6668V15C100 12.2387 97.7619 10 95.0004 10H63.3334C60.5721 10 58.3334 12.2387 58.3334 15V25H6.6666C2.98477 25 0 27.9848 0 31.6666V61.6666C0 65.3486 2.98477 68.3334 6.6666 68.3334ZM50.6666 86.035C50.6552 86.1369 50.6143 86.2334 50.5488 86.3124C50.4834 86.3914 50.3963 86.4497 50.2982 86.4799C50.1673 86.5251 50.024 86.5179 49.8982 86.46L35.6832 80.1434C35.47 80.0495 35.2395 80.001 35.0065 80.001C34.7736 80.001 34.5431 80.0495 34.3299 80.1434L20.1133 86.46C19.9885 86.5172 19.8465 86.5244 19.7166 86.4799C19.6197 86.4472 19.5338 86.3884 19.4683 86.3099C19.4029 86.2313 19.3605 86.1362 19.3458 86.035C19.3311 85.9339 19.3447 85.8306 19.3851 85.7367C19.4256 85.6428 19.4912 85.562 19.5748 85.5031L32.1914 76.6664H37.808L50.4313 85.4998C50.5185 85.5562 50.5873 85.637 50.6291 85.7321C50.671 85.8272 50.684 85.9325 50.6666 86.035ZM36.6666 73.3334H33.3332V68.3334H36.6666V73.3334ZM64.0232 80L70.1898 73.8334C70.3448 73.6753 70.5297 73.5497 70.7337 73.4639C70.9377 73.378 71.1568 73.3337 71.3781 73.3334H86.9447C87.1661 73.3337 87.3851 73.378 87.5892 73.4639C87.7932 73.5497 87.9781 73.6753 88.133 73.8334L94.2996 80H64.0232ZM67.6434 86.6666H61.6666V83.3332H70.9766L67.6434 86.6666ZM90.69 86.6666L87.3566 83.3332H96.6666V86.6666H90.69ZM94.31 13.3334L88.1434 19.5C87.9884 19.6581 87.8035 19.7837 87.5995 19.8695C87.3955 19.9554 87.1764 19.9997 86.9551 20H71.3834C71.1621 19.9997 70.943 19.9554 70.739 19.8695C70.5349 19.7837 70.3501 19.6581 70.1951 19.5L64.0234 13.3334H94.31ZM61.6666 15.69L67.8332 21.8566C68.2974 22.326 68.8503 22.6982 69.4598 22.9518C70.0693 23.2053 70.7231 23.335 71.3832 23.3334H86.9498C87.6087 23.335 88.2614 23.2058 88.8699 22.9532C89.4784 22.7005 90.0307 22.3295 90.4947 21.8617L96.6613 15.6951V28.3334H95C94.0795 28.3334 93.3334 29.0795 93.3334 30C93.3334 30.9205 94.0795 31.6666 95 31.6666H96.6666V35H95C94.558 35 94.1341 35.1756 93.8215 35.4881C93.509 35.8007 93.3334 36.2246 93.3334 36.6666C93.3334 37.1086 93.509 37.5325 93.8215 37.8451C94.1341 38.1576 94.558 38.3332 95 38.3332H96.6666V41.6666H95C94.558 41.6666 94.1341 41.8422 93.8215 42.1547C93.509 42.4673 93.3334 42.8912 93.3334 43.3332C93.3334 43.7752 93.509 44.1991 93.8215 44.5117C94.1341 44.8242 94.558 44.9998 95 44.9998H96.6666V48.3332H95C94.558 48.3332 94.1341 48.5088 93.8215 48.8213C93.509 49.1339 93.3334 49.5578 93.3334 49.9998C93.3334 50.4418 93.509 50.8657 93.8215 51.1783C94.1341 51.4908 94.558 51.6664 95 51.6664H96.6666V55H95C94.558 55 94.1341 55.1756 93.8215 55.4881C93.509 55.8007 93.3334 56.2246 93.3334 56.6666C93.3334 57.1086 93.509 57.5325 93.8215 57.8451C94.1341 58.1576 94.558 58.3332 95 58.3332H96.6666V61.6666H95C94.558 61.6666 94.1341 61.8422 93.8215 62.1547C93.509 62.4673 93.3334 62.8912 93.3334 63.3332C93.3334 63.7752 93.509 64.1991 93.8215 64.5117C94.1341 64.8242 94.558 64.9998 95 64.9998H96.6666V77.6432L90.5 71.4766C90.0358 71.0072 89.4829 70.635 88.8734 70.3814C88.2639 70.1279 87.6101 69.9982 86.95 69.9998H71.3834C70.7245 69.9982 70.0718 70.1274 69.4633 70.38C68.8548 70.6327 68.3025 71.0037 67.8385 71.4715L61.6719 77.6381V68.333H63.3385C67.0203 68.333 70.0051 65.3482 70.0051 61.6664V31.6664C70.0051 27.9846 67.0203 24.9998 63.3385 24.9998H61.6668V15.69H61.6666ZM3.3334 31.6666C3.3334 29.8256 4.82578 28.3332 6.6668 28.3332H63.3334C65.1744 28.3332 66.6668 29.8256 66.6668 31.6666V61.6666C66.6668 63.5076 65.1744 65 63.3334 65H6.6666C4.82559 65 3.3332 63.5076 3.3332 61.6666L3.3334 31.6666Z" fill="#2A3547" stroke="#FAFAFA" stroke-width="0.6" mask="url(#path-1-inside-1_147_325)"/>
<path d="M8.33338 38.3334C8.77537 38.3334 9.1992 38.1577 9.5117 37.8452L12.8449 34.5118C13.1485 34.1974 13.3165 33.7764 13.3127 33.3394C13.3089 32.9024 13.1336 32.4844 12.8246 32.1754C12.5156 31.8664 12.0976 31.6911 11.6606 31.6873C11.2236 31.6835 10.8026 31.8515 10.4883 32.1551L7.15506 35.4883C6.92197 35.7214 6.76323 36.0183 6.69891 36.3416C6.63459 36.6649 6.66758 37 6.7937 37.3045C6.91983 37.6091 7.13342 37.8694 7.40748 38.0525C7.68154 38.2357 8.00376 38.3334 8.33338 38.3334ZM8.33338 46.6666C8.77537 46.6666 9.1992 46.4909 9.5117 46.1784L21.1783 34.5118C21.4819 34.1974 21.6499 33.7764 21.6461 33.3394C21.6423 32.9024 21.467 32.4844 21.158 32.1754C20.849 31.8664 20.431 31.6911 19.994 31.6873C19.557 31.6835 19.136 31.8515 18.8217 32.1551L7.15506 43.8217C6.92204 44.0548 6.76336 44.3517 6.69907 44.675C6.63479 44.9982 6.66779 45.3333 6.79391 45.6378C6.92003 45.9423 7.1336 46.2025 7.40762 46.3857C7.68163 46.5688 8.0038 46.6666 8.33338 46.6666ZM79.1666 50C80.3203 50.0001 81.4482 49.658 82.4075 49.017C83.3668 48.376 84.1146 47.465 84.5561 46.3991C84.9976 45.3331 85.1132 44.1602 84.8881 43.0286C84.663 41.8971 84.1074 40.8576 83.2916 40.0418C82.4758 39.226 81.4364 38.6704 80.3048 38.4453C79.1732 38.2202 78.0003 38.3358 76.9343 38.7773C75.8684 39.2189 74.9574 39.9666 74.3164 40.9259C73.6754 41.8852 73.3333 43.0131 73.3334 44.1668C73.3334 47.3883 75.9449 50 79.1666 50ZM79.1666 41.6666C80.5472 41.6666 81.6666 42.786 81.6666 44.1666C81.6666 45.5473 80.5472 46.6666 79.1666 46.6666C77.7859 46.6666 76.6666 45.5473 76.6666 44.1666C76.6666 42.786 77.7859 41.6666 79.1666 41.6666ZM76.6666 51.6666C76.4477 51.6666 76.231 51.7097 76.0288 51.7935C75.8266 51.8773 75.6429 52 75.4881 52.1548C75.3334 52.3095 75.2106 52.4933 75.1268 52.6955C75.0431 52.8977 75 53.1144 75 53.3332V58.3332C75 59.2537 75.7461 59.9998 76.6666 59.9998C77.5871 59.9998 78.3332 59.2537 78.3332 58.3332V53.3332C78.3332 52.8912 78.1576 52.4673 77.845 52.1548C77.5325 51.8422 77.1086 51.6666 76.6666 51.6666ZM81.6666 51.6666C81.2246 51.6666 80.8007 51.8422 80.4881 52.1548C80.1756 52.4673 80 52.8912 80 53.3332V58.3332C80 59.2537 80.7461 59.9998 81.6666 59.9998C82.5871 59.9998 83.3332 59.2537 83.3332 58.3332V53.3332C83.3332 52.8912 83.1576 52.4673 82.845 52.1548C82.5325 51.8422 82.1086 51.6666 81.6666 51.6666Z" fill="#2A3547"/>
</g>
<defs>
<clipPath id="clip0_147_325">
<rect width="100" height="100" fill="white"/>
</clipPath>
</defs>
</svg>
