<svg width="20" height="20" viewBox="0 0 20 20" fill="none" xmlns="http://www.w3.org/2000/svg">
<g clip-path="url(#clip0_8_4)">
<path d="M8.54834 7.88917L12.2583 10L8.54834 12.1108V7.89V7.88917Z" fill="#5B265D"/>
<path d="M10 0C4.4775 0 0 4.4775 0 10C0 15.5225 4.4775 20 10 20C15.5225 20 20 15.5225 20 10C20 4.4775 15.5225 0 10 0ZM16.8 13.4383C16.6375 14.0525 16.1558 14.5367 15.545 14.7017C14.4383 15 10 15 10 15C10 15 5.56167 15 4.455 14.7017C3.84417 14.5375 3.36333 14.0533 3.2 13.4383C2.9025 12.3242 2.9025 10 2.9025 10C2.9025 10 2.9025 7.67583 3.2 6.56167C3.3625 5.9475 3.84417 5.46333 4.455 5.29917C5.56167 5.00083 10 5.00083 10 5.00083C10 5.00083 14.4383 5.00083 15.545 5.29917C16.1558 5.46333 16.6367 5.9475 16.8 6.56167C17.0967 7.67583 17.0967 10 17.0967 10C17.0967 10 17.0967 12.3242 16.8 13.4383Z" fill="#5B265D"/>
</g>
<defs>
<clipPath id="clip0_8_4">
<rect width="20" height="20" fill="white"/>
</clipPath>
</defs>
</svg>
